# xmcd
#
# Track frame offsets:
#	300
#	13491
#	27389
#	45047
#	58925
#	77797
#	95836
#	112125
#	132741
#	148787
#	169243
#	184496
#	200443
#
# Disc length: 2911 seconds
#
# Revision: 0
# Processed by: cddbd v1.5.1PL0 Copyright (c) Steve Scherf et al.
# Submitted via: audiograbber 1.83.01
#
DISCID=cc0b5b0d
DTITLE=Bobby Purify - Better to Have It
DYEAR=2005
DGENRE=Blues
TTITLE0=Better To Have It
TTITLE1=I'm Qualified
TTITLE2=Things To Happen
TTITLE3=What's Old To You
TTITLE4=Forever Changed
TTITLE5=My Life To Live Over
TTITLE6=Nobody's Home
TTITLE7=Somebody's Gotta Do it
TTITLE8=Hate To See You Go
TTITLE9=The Pond
TTITLE10=Testimony Of A Fool
TTITLE11=You Make me Dig
TTITLE12=Only In America
EXTD=The delightful new album from Bobby Purify - "Better To Have It".  Along w
EXTD=ith his band feat: Dan Penn, Spooner Oldham, Reggie Young, Odessa Settles 
EXTD=and many more, he cooks up a rich brew chock full of gospel and blues ting
EXTD=ed numbers. Anyone liking Otis Redding, Soloman Burke, Percy Sledge or Cla
EXTD=rence Carter will lap this up.
EXTT0=
EXTT1=
EXTT2=
EXTT3=
EXTT4=
EXTT5=
EXTT6=
EXTT7=
EXTT8=
EXTT9=
EXTT10=
EXTT11=
EXTT12=
PLAYORDER=
